<svg xmlns="http://www.w3.org/2000/svg" width="1600" height="600" viewBox="0 0 1600 600">
    <defs>
      <linearGradient id="bg" x1="0" y1="0" x2="1" y2="1">
        <stop offset="0" stop-color="#0b3d32"/>
        <stop offset="0.62" stop-color="#126b4f"/>
        <stop offset="1" stop-color="#e8f6ef"/>
      </linearGradient>
    </defs>
    <rect width="1600" height="600" fill="url(#bg)"/>
    <circle cx="1350" cy="90" r="260" fill="#ffffff" opacity="0.12"/>
    <circle cx="1460" cy="500" r="210" fill="#d9a441" opacity="0.2"/>

    <g transform="translate(1050 155) scale(1.2)" opacity="0.95">
      <rect x="0" y="0" width="330" height="210" rx="24" fill="#ffffff" opacity="0.94"/>
      <rect x="28" y="30" width="180" height="16" rx="8" fill="#0b3d32" opacity="0.9"/>
      <rect x="28" y="62" width="256" height="10" rx="5" fill="#445a55" opacity="0.35"/>
      <rect x="28" y="92" width="76" height="72" rx="14" fill="#e8f6ef"/>
      <rect x="126" y="92" width="76" height="72" rx="14" fill="#f6edd7"/>
      <rect x="224" y="92" width="76" height="72" rx="14" fill="#e7f0ff"/>
      <path d="M45 145 L72 119 L94 136" fill="none" stroke="#126b4f" stroke-width="8" stroke-linecap="round" stroke-linejoin="round"/>
      <circle cx="164" cy="128" r="24" fill="none" stroke="#d9a441" stroke-width="10"/>
      <path d="M249 145 h35" stroke="#126b4f" stroke-width="9" stroke-linecap="round"/>
      <path d="M249 122 h22" stroke="#0b3d32" stroke-width="9" stroke-linecap="round"/>
    </g>
    <g transform="translate(94 92)">
      <rect x="0" y="0" width="238" height="54" rx="27" fill="#ffffff" opacity="0.18"/>
      <text x="119" y="36" font-family="Inter, Arial, sans-serif" font-size="23" font-weight="900" text-anchor="middle" fill="#ffffff">MONTHLY PREMIUM</text>
      <text x="0" y="170" font-family="Inter, Arial, sans-serif" font-size="78" font-weight="950" fill="#ffffff">Promotion CBT Premium</text>
      <text x="0" y="238" font-family="Inter, Arial, sans-serif" font-size="38" font-weight="800" fill="#f6edd7">Federal Civil Service promotion practice for serious candidates</text>
      <g transform="translate(0 310)">
        <rect x="0" y="0" width="238" height="62" rx="31" fill="#d9a441"/>
        <text x="119" y="42" font-family="Inter, Arial, sans-serif" font-size="28" font-weight="950" text-anchor="middle" fill="#10231f">N2,500 / month</text>
        <text x="280" y="40" font-family="Inter, Arial, sans-serif" font-size="29" font-weight="800" fill="#ffffff">All topics, mock exams, analytics, cloud sync</text>
      </g>
    </g>
  </svg>